<svg version="1.2" xmlns="http://www.w3.org/2000/svg" viewBox="0 0 167 95" width="200.4" height="114">
	<title>math_1-40</title>
	<style>
		tspan { white-space:pre }
		.s0 { fill: none;stroke: var(--c-title);stroke-miterlimit:100;stroke-width: 1.5 }
		.s1 { fill: none;stroke: var(--c-text);stroke-linejoin: round;stroke-width: 2 }
		.s2 { fill: var(--c-title) }
		.t3 { font-size: 24px;fill: var(--c-text);font-weight: 400; }
	</style>
	<path id="Shape 2" class="s0" d="m33 53l31 21"/>
	<path id="Shape 3" class="s0" d="m59 21l76 54"/>
	<path id="Shape 1" class="s1" d="m70 8l-55 66h132"/>
	<path id="Shape 1" class="s2" d="m59.5 24c-1.4 0-2.5-1.1-2.5-2.5 0-1.4 1.1-2.5 2.5-2.5 1.4 0 2.5 1.1 2.5 2.5 0 1.4-1.1 2.5-2.5 2.5z"/>
	<path id="Shape 1 copy" class="s2" d="m32.5 55c-1.4 0-2.5-1.1-2.5-2.5 0-1.4 1.1-2.5 2.5-2.5 1.4 0 2.5 1.1 2.5 2.5 0 1.4-1.1 2.5-2.5 2.5z"/>
	<path id="Shape 1 copy 2" class="s2" d="m64.5 77c-1.4 0-2.5-1.1-2.5-2.5 0-1.4 1.1-2.5 2.5-2.5 1.4 0 2.5 1.1 2.5 2.5 0 1.4-1.1 2.5-2.5 2.5z"/>
	<path id="Shape 1 copy 3" class="s2" d="m133.5 76c-1.4 0-2.5-1.1-2.5-2.5 0-1.4 1.1-2.5 2.5-2.5 1.4 0 2.5 1.1 2.5 2.5 0 1.4-1.1 2.5-2.5 2.5z"/>
	<text id="A" style="transform: matrix(.634,0,0,.634,21.366,51.407)" >
		<tspan x="0" y="0" class="t3">A
</tspan>
	</text>
	<text id="O" style="transform: matrix(.634,0,0,.634,2.366,85.407)" >
		<tspan x="0" y="0" class="t3">O</tspan><tspan  y="0" class="t3">
</tspan>
	</text>
	<text id="D" style="transform: matrix(.634,0,0,.634,132.366,89.407)" >
		<tspan x="0" y="0" class="t3">D
</tspan>
	</text>
	<text id="B" style="transform: matrix(.634,0,0,.634,47.366,20.407)" >
		<tspan x="0" y="0" class="t3">B
</tspan>
	</text>
	<text id="C" style="transform: matrix(.634,0,0,.634,61.366,89.407)" >
		<tspan x="0" y="0" class="t3">C
</tspan>
	</text>
</svg>